<svg height="128" width="128" xmlns="http://www.w3.org/2000/svg"><linearGradient id="a" gradientUnits="userSpaceOnUse" x1="8" x2="120" y1="104" y2="104"><stop offset="0" stop-color="#5e5c64"/><stop offset=".036" stop-color="#9a9996"/><stop offset=".071" stop-color="#5e5c64"/><stop offset=".929" stop-color="#5e5c64"/><stop offset=".964" stop-color="#9a9996"/><stop offset="1" stop-color="#5e5c64"/></linearGradient><linearGradient id="b" gradientUnits="userSpaceOnUse" x1="23.984" x2="23.5" y1="25.79" y2="23.99"><stop offset="0" stop-color="#f6f5f4"/><stop offset="1" stop-color="#fcfcfc"/></linearGradient><linearGradient id="c" gradientUnits="userSpaceOnUse" x1="23" x2="26.679" y1="24" y2="25.83"><stop offset="0" stop-color="#f6f5f4"/><stop offset="1" stop-color="#deddda"/></linearGradient><g stroke-width="4"><g fill="#5e5c64"><rect height="24" ry="4" width="112" x="8" y="24"/><rect height="24" ry="4" width="112" x="8" y="48"/><rect height="24" ry="4.235" width="112" x="8" y="72"/></g><rect fill="url(#a)" height="20" ry="4" width="112" x="8" y="92"/><g fill="#9a9996"><rect height="20" ry="4" width="112" x="8" y="12"/><rect height="20" ry="4" width="112" x="8" y="36"/><rect height="20" ry="4" width="112" x="8" y="60"/><rect height="20" ry="4" width="112" x="8" y="84"/></g><path d="M56 88h60v12H56zm0-24h60v12H56zm0-24h60v12H56zm0-24h60v12H56z" fill="#3d3846"/><g fill="#5e5c64"><path d="M56 92h60v8H56zm0-24h60v8H56zm0-24h60v8H56zm0-24h60v8H56z"/><rect height="8" ry="2" width="4" x="16" y="16"/><rect height="8" ry="2" width="4" x="24" y="16"/><rect height="8" ry="2" width="4" x="16" y="40"/><rect height="8" ry="2" width="4" x="24" y="40"/><rect height="8" ry="2" width="4" x="16" y="64"/><rect height="8" ry="2" width="4" x="24" y="64"/><rect height="8" ry="2" width="4" x="16" y="88"/><rect height="8" ry="2" width="4" x="24" y="88"/></g><rect fill="#e01b24" height="4" ry="2" width="4" x="24" y="44"/><rect fill="#e01b24" height="4" ry="2" width="4" x="16" y="68"/><g fill="#f6d32d"><rect height="4" ry="2" width="4" x="16" y="20"/><rect height="4" ry="2" width="4" x="24" y="68"/><rect height="4" ry="2" width="4" x="16" y="92"/></g><g fill="#33d17a"><rect height="4" ry="2" width="4" x="24" y="20"/><rect height="4" ry="2" width="4" x="16" y="44"/><rect height="4" ry="2" width="4" x="24" y="92"/></g><path d="M108 92h4v8h-4zm-8 0h4v8h-4zm-8 0h4v8h-4zm-8 0h4v8h-4zm-8 0h4v8h-4zm-8 0h4v8h-4zm-8 0h4v8h-4zm48-24h4v8h-4zm-8 0h4v8h-4zm-8 0h4v8h-4zm-8 0h4v8h-4zm-8 0h4v8h-4zm-8 0h4v8h-4zm-8 0h4v8h-4zm48-48h4v8h-4zm-8 0h4v8h-4zm-8 0h4v8h-4zm-8 0h4v8h-4zm-8 0h4v8h-4zm-8 0h4v8h-4zm-8 0h4v8h-4zm48 24h4v8h-4zm-8 0h4v8h-4zm-8 0h4v8h-4zm-8 0h4v8h-4zm-8 0h4v8h-4zm-8 0h4v8h-4zm-8 0h4v8h-4z" fill="#3d3846"/><path d="M108 88h4v4h-4zm-8 0h4v4h-4zm-8 0h4v4h-4zm-8 0h4v4h-4zm-8 0h4v4h-4zm-8 0h4v4h-4zm-8 0h4v4h-4zm48-24h4v4h-4zm-8 0h4v4h-4zm-8 0h4v4h-4zm-8 0h4v4h-4zm-8 0h4v4h-4zm-8 0h4v4h-4zm-8 0h4v4h-4zm48-48h4v4h-4zm-8 0h4v4h-4zm-8 0h4v4h-4zm-8 0h4v4h-4zm-8 0h4v4h-4zm-8 0h4v4h-4zm-8 0h4v4h-4zm48 24h4v4h-4zm-8 0h4v4h-4zm-8 0h4v4h-4zm-8 0h4v4h-4zm-8 0h4v4h-4zm-8 0h4v4h-4zm-8 0h4v4h-4z" fill="#241f31"/></g><g transform="translate(64 -994.5)"><rect fill="#e01b24" height="12" ry="2" width="6" x="50" y="1068.5"/><rect fill="#613583" height="16" ry="4" width="39" x="13" y="1098.5"/><path d="M12 1106.5h35v8H12z" fill="#613583"/><rect fill="#fff" height="18" ry="4" width="38" x="14" y="1094.5"/><path d="M14 1094.5h17v18H14z" fill="#fff"/><path d="M7 17v9h17c1.108 0 2-.892 2-2v-5c0-1.108-.892-2-2-2z" fill="url(#b)" transform="matrix(2 0 0 2 0 1058.5)"/><path d="M7 16v9h17c1.108 0 2-.892 2-2v-5c0-1.108-.892-2-2-2z" fill="url(#c)" transform="matrix(2 0 0 2 0 1058.5)"/><path d="M12 1100.5h34v6H12z" fill="#613583"/><rect fill="#613583" height="10" ry="4" width="40" x="12" y="1096.5"/><rect fill="#f6d32d" height="12" ry="2" width="6" x="50" y="1074.5"/><rect fill="#33d17a" height="12" ry="2" width="6" x="50" y="1080.5"/><rect fill="#3584e4" height="12" ry="2" width="6" x="50" y="1088.5"/><rect fill="#a347ba" height="42" ry="4" width="36" x="16" y="1062.5"/><path d="M12 1062.5v42h20v-42H16v1c0 .554-.446 1-1 1s-1-.446-1-1v-1z" fill="#a347ba"/><path d="M14 1063.5v43h2v-43c0 .554-.446 1-1 1s-1-.446-1-1z" fill="#613583"/><path d="M33.336 1071.727c-7.387 0-12.406 4.851-12.406 12.078 0 6.906 4.614 11.367 11.28 11.367 2.054 0 4.005-.43 5.845-1.336l-.961-2.852c-1.307.667-2.88 1.008-4.453 1.008-4.827 0-8.055-3.302-8.055-8.289 0-5.093 3.388-8.672 8.508-8.672 4.88 0 8.11 3.232 8.11 8.219 0 2.213-.646 3.734-1.579 3.734-.613 0-1.094-.671-1.094-1.578h-.023l.562-7.547h-3.28l-.297.805c-.64-.72-1.65-1.125-2.93-1.125-3.44 0-6.03 2.775-6.03 6.508 0 3.28 2.03 5.469 5.07 5.469 1.413 0 2.742-.505 3.835-1.438.827 1.147 2.217 1.836 3.844 1.836 3.36 0 5.57-2.934 5.57-7.414 0-6.427-4.609-10.773-11.515-10.773zm-.484 9.015c.906 0 1.711.774 1.898 1.867l-.164 2.696c-.507.666-1.226 1.007-1.813 1.007-1.12 0-1.757-1.04-1.757-2.64 0-1.707.742-2.93 1.836-2.93z" fill="#fff"/></g></svg>